<?xml version="1.0" encoding="UTF-8"?>
<svg width="1863px" height="723px" viewBox="0 0 1863 723" version="1.1" xmlns="http://www.w3.org/2000/svg" xmlns:xlink="http://www.w3.org/1999/xlink">
    <!-- Generator: Sketch 54.1 (76490) - https://sketchapp.com -->
    <title>Artboard</title>
    <desc>Created with Sketch.</desc>
    <g id="Artboard" stroke="none" stroke-width="1" fill="none" fill-rule="evenodd">
        <g id="Group" transform="translate(125.000000, 0.000000)" fill-rule="nonzero">
            <g id="sass-1" transform="translate(0.000000, 30.000000)" fill="#CF649A">
                <path d="M762.711272,381.28746 C731.733177,381.46222 704.90857,388.900772 682.410512,399.976411 C674.103537,383.538578 665.796561,369.175373 664.413796,358.449254 C662.856238,345.991107 660.952557,338.376065 662.856238,323.49723 C664.75819,308.614935 673.411289,287.505297 673.411289,285.774999 C673.236496,284.21773 671.505876,276.604418 653.682223,276.431389 C635.858569,276.258359 620.454322,279.891985 618.723702,284.56379 C616.993082,289.235595 613.531842,299.963444 611.282037,311.037353 C608.166921,327.302156 575.631268,384.921086 557.113636,415.201305 C551.056466,403.435277 545.864607,393.053488 544.824504,384.746326 C543.268677,372.289909 541.363264,364.674867 543.268677,349.796033 C545.172359,334.913738 553.825458,313.80583 553.825458,312.075532 C553.652396,310.518263 551.921776,302.904951 534.098122,302.731921 C516.271007,302.558892 500.870221,306.192518 499.139602,310.864323 C497.408982,315.536128 495.5053,326.610037 491.697936,337.337886 C488.061904,348.065735 444.796408,444.270315 433.547379,469.359639 C427.836334,482.163846 422.819267,492.372605 419.183234,499.293798 C415.548933,506.214991 419.010173,499.812888 418.664049,500.505007 C415.548933,506.388021 413.818313,509.675587 413.818313,509.675587 L413.818313,509.850348 C411.395445,514.176093 408.799515,518.327079 407.586351,518.327079 C406.721041,518.327079 404.990421,506.734081 407.932475,490.817067 C414.335768,457.420581 429.911347,405.340336 429.740016,403.437008 C429.740016,402.571858 432.680339,393.399548 419.70069,388.729473 C407.067165,384.057668 402.569284,391.84401 401.529182,391.84401 C400.49081,391.84401 399.6255,394.612487 399.6255,394.612487 C399.6255,394.612487 413.64352,335.957108 372.800892,335.957108 C347.187719,335.957108 311.883074,363.814909 294.403814,389.250293 C283.327847,395.306336 259.791417,408.108813 234.870491,421.779899 C225.352082,426.970794 215.487549,432.507748 206.142202,437.525613 L204.240251,435.445794 C154.744523,382.671699 63.1947337,345.297257 67.0020974,274.355031 C68.3865933,248.573587 77.3858164,180.572868 242.834804,98.2106727 C378.342337,30.7290425 486.852201,49.2432334 505.714226,90.4243308 C532.538834,149.25447 447.738462,258.609317 306.867738,274.355031 C253.218523,280.411074 225.007689,259.647496 217.913878,251.861154 C210.472213,243.728752 209.433841,243.382693 206.664849,244.939961 C202.165237,247.362379 204.934229,254.629631 206.664849,258.955377 C210.818337,269.856255 228.124535,289.235595 257.545072,298.925265 C283.329577,307.403727 346.32587,312.075532 422.473143,282.660462 C507.792701,249.611766 574.421565,157.905961 554.86556,81.2537503 C534.963432,3.21730093 405.513068,-22.3911126 283.158246,21.0393725 C210.29742,46.9938457 131.381155,87.4828238 74.6168247,140.602979 C7.12265097,203.585834 -3.60719203,258.609317 0.892419553,281.449253 C16.6427907,362.946299 128.958288,416.066454 173.954403,455.344224 C171.704598,456.553702 169.627854,457.764911 167.724172,458.80482 C145.226114,469.876998 59.5604321,514.693452 38.1007461,562.101893 C13.8720683,615.741138 41.9081097,654.328518 60.598804,659.519413 C118.401507,675.611186 177.588705,646.715206 209.605172,599.132005 C241.446846,551.548804 237.641213,489.777158 222.930945,461.573297 L222.410028,460.535118 L240.062351,450.153329 C251.486172,443.405166 262.735201,437.176092 272.598004,431.810438 C267.061751,446.864032 263.079594,464.686104 261.004581,490.640577 C258.581713,521.095556 271.042176,560.544625 287.483065,576.117309 C294.751668,582.863741 303.404767,583.038501 308.769689,583.038501 C327.806507,583.038501 336.459606,567.291057 345.978015,548.432537 C357.74623,525.419571 368.129949,498.772978 368.129949,498.772978 C368.129949,498.772978 355.1503,570.926414 390.628007,570.926414 C403.607656,570.926414 416.587305,554.142521 422.471412,545.49103 L422.471412,545.66406 C422.471412,545.66406 422.817536,545.144971 423.509784,543.933762 C424.235929,542.860269 424.928511,541.764461 425.586528,540.647925 L425.586528,540.301866 C430.778387,531.304315 442.37354,510.713766 459.679739,476.626892 C482.003004,432.677317 503.464421,377.653834 503.464421,377.653834 C503.464421,377.653834 505.541164,391.15016 511.944458,413.297977 C515.750091,426.449974 524.057066,440.809719 530.460359,454.825134 C525.2685,462.092387 522.153384,466.246833 522.153384,466.246833 L522.326446,466.419862 C518.174689,471.956817 513.500285,477.841561 508.65628,483.722845 C491.003958,504.832483 469.890396,528.885358 467.121404,535.806551 C463.833226,543.937222 464.525474,549.993266 470.928768,554.839831 C475.601441,558.300428 483.908416,558.990817 492.734578,558.300428 C508.65628,557.260519 519.732247,553.282563 525.270231,550.858415 C533.92333,547.743878 543.787863,543.072073 553.306272,536.15088 C570.61247,523.348404 581.169251,505.180273 580.130879,480.956098 C579.611694,467.632802 575.285144,454.482535 569.920222,442.024388 C571.47778,439.775 573.037069,437.523882 574.592896,435.103195 C601.936689,395.131576 623.050251,351.183732 623.050251,351.183732 C623.050251,351.183732 625.126995,364.680058 631.530289,386.827875 C634.816736,398.074813 641.394822,410.361661 647.278929,422.473749 C621.665756,443.410357 605.570991,467.634532 600.033008,483.553275 C589.822351,512.968345 597.783202,526.291641 612.839594,529.406178 C619.587281,530.790417 629.280483,527.67588 636.547356,524.561343 C645.546579,521.619836 656.449484,516.600241 666.488809,509.161689 C683.795008,496.357482 700.408958,478.535411 699.543648,454.484265 C699.024462,443.410357 696.082409,432.509478 692.101983,422.127689 C713.907793,413.130138 742.115166,407.939244 777.940727,412.264989 C854.95331,421.26254 870.182764,469.36483 867.242441,489.436289 C864.300388,509.509479 848.205623,520.581657 842.838971,524.042254 C837.474049,527.32982 835.74343,528.542759 836.262616,530.963446 C836.954863,534.598803 839.377731,534.424043 844.050405,533.733654 C850.453698,532.693745 884.546909,517.295821 885.931405,480.269169 C888.008149,432.679047 842.838971,380.770101 762.711272,381.28746 L762.711272,381.28746 Z M168.762544,581.482963 C143.322432,609.340764 107.498602,619.895584 92.269147,610.898033 C75.8282586,601.381393 82.2298213,560.373325 113.555771,530.785226 C132.592589,512.790124 157.340453,496.179261 173.608279,485.970502 C177.242581,483.721114 182.780565,480.435278 189.35692,476.453862 C190.395292,475.763473 191.08754,475.415683 191.08754,475.415683 C192.298974,474.723564 193.68347,473.858414 195.067965,472.993265 C206.663118,515.212542 195.587151,552.240923 168.762544,581.482963 L168.762544,581.482963 Z M354.804177,454.998164 C345.978015,476.626892 327.287321,532.169464 316.038292,529.054927 C306.34509,526.45948 300.462714,484.413234 314.13288,442.886077 C321.055359,421.947738 335.765628,397.033174 344.418727,387.341774 C358.438478,371.76909 373.666202,366.578195 377.475296,372.980298 C381.974908,381.28746 360.34216,441.501838 354.804177,454.998164 Z M508.310156,528.362808 C504.502793,530.267866 501.041553,531.650375 499.483995,530.613926 C498.272561,529.921807 501.039822,527.32636 501.039822,527.32636 C501.039822,527.32636 520.249702,506.735811 527.86443,497.219171 C532.190979,491.683947 537.382839,485.281843 542.920822,478.01286 L542.920822,480.089218 C542.922553,505.003782 519.039999,521.614645 508.310156,528.362808 Z M626.682822,501.370156 C623.913831,499.293798 624.261685,492.891695 633.605302,472.820236 C637.241334,464.860864 645.546579,451.537568 659.910723,438.906391 C661.641343,444.097285 662.681446,449.11342 662.506653,453.786955 C662.335322,484.932323 640.183388,496.525321 626.682822,501.370156 Z" id="Shape"></path>
            </g>
            <g id="CSS.3" transform="translate(1099.000000, 0.000000)">
                <g id="#000000ff" transform="translate(102.397661, 0.000000)" fill="#000000">
                    <path d="M0.557163743,0.378053176 C32.1799708,-0.0135718242 63.8027778,0.257553176 95.4255848,0.242490676 C95.5008772,10.1385532 95.651462,20.0346157 95.2900585,29.9306782 C73.3799708,29.7800532 51.4849415,29.9306782 29.5899123,30.0662407 C29.4393275,44.4358657 29.1532164,58.8054907 29.2887427,73.1751157 C51.2741228,73.3106782 73.2745614,73.5215532 95.2599415,73.4311782 C95.5159357,81.5649282 95.4255848,89.7288032 95.1846491,97.8776157 C63.652193,97.6667407 32.1197368,97.7571157 0.587280702,97.7872407 C0.662573099,65.3124907 0.722807018,32.8528032 0.557163743,0.378053176 Z" id="Path"></path>
                    <path d="M106.704386,0.272615676 C138.718713,0.212365676 170.733041,0.0165531758 202.762427,0.378053176 C202.641959,9.73186568 202.73231,19.0706157 202.73231,28.4244282 C179.436842,28.3491157 156.126316,28.4545532 132.830848,28.7256782 C132.860965,32.4009282 132.860965,36.0761782 132.830848,39.7514282 C156.096199,40.1279907 179.346491,40.1731782 202.596784,40.3087407 C202.687135,59.4833032 202.641959,78.6428032 202.762427,97.8023032 C170.733041,97.7420532 138.703655,97.7721782 106.674269,97.9228032 C106.508626,90.1806782 106.493567,82.4536157 106.719444,74.7114907 C128.915643,74.7717407 151.126901,74.8018657 173.323099,74.6211157 C173.458626,69.6354282 173.51886,64.6346782 173.503801,59.6489907 C151.202193,59.6489907 128.885526,59.7243032 106.583918,59.5736782 C106.583918,39.8116782 106.583918,20.0346157 106.704386,0.272615676 Z" id="Path"></path>
                    <path d="M213.484064,0.438303176 C245.438158,0.438303176 277.40731,0.438303176 309.361404,0.438303176 C309.49693,9.83730318 309.632456,19.2363032 309.331287,28.6202407 C285.930409,28.6051782 262.529532,28.7407407 239.128655,28.7859282 C239.188889,32.6268657 239.27924,36.4678032 239.475,40.3087407 C262.740351,40.2033032 286.005702,40.4894907 309.255994,40.7304907 C309.466813,59.8146782 309.617398,78.8988657 309.346345,97.9830532 C277.316959,97.8926782 245.287573,97.8926782 213.258187,98.0433032 C213.062427,90.3313032 213.002193,82.5891782 213.33348,74.8771782 C235.484503,75.0428657 257.650585,75.0127407 279.816667,74.8018657 C279.876901,69.8011157 279.98231,64.8003657 279.937135,59.8146782 C257.69576,60.0255532 235.439327,59.9050532 213.182895,59.8297407 C213.182895,40.0376157 213.33348,20.2304282 213.484064,0.438303176 Z" id="Path"></path>
                </g>
                <g id="#0170baff" transform="translate(0.000000, 137.507053)" fill="#0170BA">
                    <path d="M0,0.692875 C171.546199,0.6778125 343.077339,0.66275 514.623538,0.692875 C505.181871,107.410687 495.890789,214.1285 486.057602,320.816187 C480.214912,389.004125 474.19152,457.192062 467.836842,525.334812 C431.229678,535.035062 394.983918,546.090937 358.391813,555.836375 C324.781287,565.702312 290.899708,574.634375 257.274123,584.425 L256.280263,584.425 C224.280994,574.9055 191.965497,566.53075 159.966228,557.01125 C122.199561,546.829 84.7641813,535.471875 46.9824561,525.334812 C42.0583333,474.257875 37.6160819,423.150812 33.2340643,372.04375 C24.9669591,277.616937 15.9770468,183.250375 8.02616959,88.8085 C5.27046784,60.3855625 3.29780702,31.87225 0,3.5095625 L0,0.692875 L0,0.692875 Z M258.117398,42.7925625 C257.755994,63.292625 258.38845,83.80775 257.755994,104.29275 C198.907456,104.081875 140.04386,104.247563 81.1953216,104.307813 C82.2042398,124.205375 84.8695906,143.967375 87.6102339,163.69925 C142.362865,165.732688 197.190789,163.623938 251.943421,165.26575 C204.042398,186.759938 155.554094,207.003938 107.442251,228.04625 C103.316228,229.883875 98.9040936,231.269625 95.2147661,233.95075 C95.621345,255.806437 99.1450292,277.541625 100.696053,299.352125 C129.879386,299.246688 159.047661,298.77975 188.230994,298.734562 C211.616813,298.614062 235.01769,299.081 258.403509,298.568875 C257.289181,334.508 258.749854,370.492312 257.650585,406.431437 C241.914474,404.09675 226.374123,400.587187 210.698246,397.800625 C198.335234,395.104437 185.671053,393.703625 173.488743,390.163937 C171.757018,372.917375 170.552339,355.610562 169.016374,338.348937 C165.49269,337.264438 161.758187,337.369875 158.114035,337.309625 C140.43538,337.415062 122.741667,337.249375 105.047953,337.5205 C106.779678,370.703188 109.761257,403.840688 114.835965,436.707062 C132.273684,441.255937 149.74152,445.714437 167.149123,450.459125 C193.81769,457.71925 220.817544,463.759312 247.531287,470.898937 C250.708626,471.57675 253.916082,472.751625 257.213889,472.4805 C258.990789,494.306062 257.620468,516.267187 257.951754,538.153 C264.110673,537.158875 270.164181,535.637562 276.112281,533.799937 C326.678655,520.062937 377.184795,506.069875 427.721053,492.197312 C430.235819,472.314812 431.41038,452.29675 433.398099,432.369062 C438.653509,371.787688 443.954094,311.206313 449.465497,250.64 C455.925585,181.3525 461.512281,111.989688 468.017544,42.7021875 C398.040789,42.7624375 328.079094,42.566625 258.117398,42.7925625 Z" id="Shape"></path>
                </g>
                <g id="#29a9dfff" transform="translate(257.062617, 179.682053)" fill="#29A9DF">
                    <path d="M1.05478088,0.6175625 C71.0164768,0.391625 140.978173,0.5874375 210.954927,0.5271875 C204.449664,69.8146875 198.862968,139.1775 192.40288,208.465 C186.891477,269.031312 181.590892,329.612687 176.335483,390.194063 C174.347763,410.12175 173.173202,430.139813 170.658436,450.022312 C120.122179,463.894875 69.6160382,477.887937 19.0496639,491.624937 C13.1015645,493.462562 7.04805574,494.983875 0.889137609,495.978 C0.557851059,474.092187 1.9281727,452.131063 0.151272112,430.3055 C0.603026498,430.215125 1.52159375,430.034375 1.97334814,429.944 C49.0009797,418.135 95.7123832,405.136062 142.634605,392.905312 C148.567646,326.329062 155.148202,259.782938 159.319401,193.071125 C119.41443,193.282 79.4944008,193.1615 39.58943,193.327187 C33.7768569,193.357312 27.9642838,193.327187 22.1818277,192.905437 C43.6552195,181.849562 66.2429388,173.083187 88.2885528,163.21725 C109.445717,153.622438 130.858874,144.630125 152.091331,135.216063 C156.187237,133.33325 160.554196,131.76675 164.153173,128.965125 C165.56867,123.768562 165.493377,118.331 166.050541,113.013937 C167.270278,96.1439375 169.438699,79.3643125 170.251857,62.47925 C113.737383,62.027375 57.2229095,62.419 0.693377375,62.11775 C1.32583352,41.63275 0.693377375,21.117625 1.05478088,0.6175625 Z" id="Path"></path>
                    <path d="M1.34089199,256.393875 C28.6268569,255.926938 55.9278803,256.665 83.2289037,256.48425 C81.7079973,284.395062 79.3889914,312.260687 77.9433774,340.1715 C61.2134066,345.639187 44.2274417,350.263375 27.3619446,355.324375 C18.3720323,358.06575 9.14118439,360.23475 0.587968018,364.256437 C1.68723702,328.317312 0.226564509,292.333 1.34089199,256.393875 Z" id="Path"></path>
                </g>
                <g id="#cfcfcfff" transform="translate(80.878406, 241.438303)" fill="#CFCFCF">
                    <path d="M0.316915387,0.3765625 C59.1654534,0.3163125 118.02905,0.150625 176.877588,0.3615 C177.64557,65.13025 176.681828,129.899 177.525103,194.637625 C154.139284,195.14975 130.738407,194.682813 107.352588,194.803313 C78.1692546,194.8485 49.0009797,195.315438 19.8176464,195.420875 C18.266623,173.610375 14.7429388,151.875188 14.3363598,130.0195 C18.0256873,127.338375 22.4378218,125.952625 26.5638452,124.115 C74.6756873,103.072688 123.163991,82.8286875 171.065015,61.3345 C116.312383,59.6926875 61.4844592,61.8014375 6.73182767,59.768 C3.99118439,40.036125 1.32583352,20.274125 0.316915387,0.3765625 Z" id="Path"></path>
                    <path d="M24.169547,233.58925 C41.8632604,233.318125 59.5569739,233.483813 77.2356288,233.378375 C80.8797809,233.438625 84.6142838,233.333188 88.137968,234.417688 C89.6739329,251.679313 90.8786113,268.986125 92.6103364,286.232688 C104.792646,289.772375 117.456828,291.173188 129.819839,293.869375 C145.495717,296.655938 161.036067,300.1655 176.772179,302.500188 C178.278026,324.370938 175.642793,346.392313 178.157559,368.18775 C177.705804,368.278125 176.787237,368.458875 176.335483,368.54925 C173.037676,368.820375 169.830219,367.6455 166.65288,366.967688 C139.939138,359.828063 112.939284,353.788 86.2707166,346.527875 C68.8631142,341.783188 51.395278,337.324688 33.9575587,332.775813 C28.8828511,299.909438 25.9012721,266.771938 24.169547,233.58925 Z" id="Path"></path>
                </g>
                <g id="#ffffffff" transform="translate(257.500000, 241.438303)" fill="#FFFFFF">
                    <path d="M0.255994152,0.3615 C56.7855263,0.66275 113.3,0.271125 169.814474,0.723 C169.001316,17.6080625 166.832895,34.3876875 165.613158,51.2576875 C165.055994,56.57475 165.131287,62.0123125 163.715789,67.208875 C160.116813,70.0105 155.749854,71.577 151.653947,73.4598125 C130.421491,82.873875 109.008333,91.8661875 87.8511696,101.461 C65.8055556,111.326938 43.2178363,120.093313 21.7444444,131.149188 C27.5269006,131.570938 33.3394737,131.601063 39.1520468,131.570938 C79.0570175,131.40525 118.977047,131.52575 158.882018,131.314875 C154.710819,198.026688 148.130263,264.572813 142.197222,331.149063 C95.275,343.379813 48.5635965,356.37875 1.53596491,368.18775 C-0.97880117,346.392313 1.65643275,324.370938 0.150584795,302.500188 C8.70380117,298.4785 17.9346491,296.3095 26.9245614,293.568125 C43.7900585,288.507125 60.7760234,283.882938 77.5059942,278.41525 C78.9516082,250.504438 81.270614,222.638813 82.7915205,194.728 C55.4904971,194.90875 28.1894737,194.170688 0.903508772,194.637625 C0.0602339181,129.899 1.02397661,65.13025 0.255994152,0.3615 Z" id="Path"></path>
                </g>
            </g>
        </g>
    </g>
</svg>